<mxfile host="app.diagrams.net" modified="2023-03-25T08:50:23.577Z" agent="5.0 (Windows NT 10.0; WOW64) AppleWebKit/537.36 (KHTML, like Gecko) Chrome/94.0.4606.71 Safari/537.36 Core/1.94.197.400 QQBrowser/11.6.5265.400" etag="Vab6IgYhfUlMr7_u8TlF" version="21.0.10" type="github">
  <diagram name="第 1 页" id="57bqM5oItVJ7xxRL0WhF">
    <mxGraphModel dx="1050" dy="547" grid="1" gridSize="10" guides="1" tooltips="1" connect="1" arrows="1" fold="1" page="1" pageScale="1" pageWidth="827" pageHeight="1169" math="0" shadow="0">
      <root>
        <mxCell id="0" />
        <mxCell id="1" parent="0" />
        <mxCell id="FEhyEeiQEZbtlAwbVF4x-1" style="rounded=0;orthogonalLoop=1;jettySize=auto;html=1;exitX=1;exitY=0.5;exitDx=0;exitDy=0;entryX=0;entryY=1;entryDx=0;entryDy=0;endArrow=none;endFill=0;" edge="1" parent="1" source="FEhyEeiQEZbtlAwbVF4x-6" target="FEhyEeiQEZbtlAwbVF4x-7">
          <mxGeometry relative="1" as="geometry" />
        </mxCell>
        <mxCell id="FEhyEeiQEZbtlAwbVF4x-2" style="rounded=0;orthogonalLoop=1;jettySize=auto;html=1;exitX=1;exitY=0.5;exitDx=0;exitDy=0;entryX=0;entryY=1;entryDx=0;entryDy=0;endArrow=none;endFill=0;" edge="1" parent="1" source="FEhyEeiQEZbtlAwbVF4x-6" target="FEhyEeiQEZbtlAwbVF4x-8">
          <mxGeometry relative="1" as="geometry" />
        </mxCell>
        <mxCell id="FEhyEeiQEZbtlAwbVF4x-3" style="rounded=0;orthogonalLoop=1;jettySize=auto;html=1;exitX=1;exitY=0.5;exitDx=0;exitDy=0;entryX=0;entryY=0.5;entryDx=0;entryDy=0;endArrow=none;endFill=0;" edge="1" parent="1" source="FEhyEeiQEZbtlAwbVF4x-6" target="FEhyEeiQEZbtlAwbVF4x-9">
          <mxGeometry relative="1" as="geometry" />
        </mxCell>
        <mxCell id="FEhyEeiQEZbtlAwbVF4x-4" style="rounded=0;orthogonalLoop=1;jettySize=auto;html=1;exitX=1;exitY=0.5;exitDx=0;exitDy=0;entryX=0;entryY=0.5;entryDx=0;entryDy=0;endArrow=none;endFill=0;" edge="1" parent="1" source="FEhyEeiQEZbtlAwbVF4x-6" target="FEhyEeiQEZbtlAwbVF4x-10">
          <mxGeometry relative="1" as="geometry" />
        </mxCell>
        <mxCell id="FEhyEeiQEZbtlAwbVF4x-5" style="rounded=0;orthogonalLoop=1;jettySize=auto;html=1;exitX=1;exitY=0.5;exitDx=0;exitDy=0;entryX=0;entryY=0;entryDx=0;entryDy=0;endArrow=none;endFill=0;" edge="1" parent="1" source="FEhyEeiQEZbtlAwbVF4x-6" target="FEhyEeiQEZbtlAwbVF4x-11">
          <mxGeometry relative="1" as="geometry" />
        </mxCell>
        <mxCell id="FEhyEeiQEZbtlAwbVF4x-6" value="工作" style="rounded=0;whiteSpace=wrap;html=1;fontSize=17;fontStyle=0" vertex="1" parent="1">
          <mxGeometry x="260" y="240" width="90" height="40" as="geometry" />
        </mxCell>
        <mxCell id="FEhyEeiQEZbtlAwbVF4x-7" value="编号" style="ellipse;whiteSpace=wrap;html=1;fontSize=17;fontStyle=0" vertex="1" parent="1">
          <mxGeometry x="368" y="163" width="80" height="40" as="geometry" />
        </mxCell>
        <mxCell id="FEhyEeiQEZbtlAwbVF4x-8" value="职位名称" style="ellipse;whiteSpace=wrap;html=1;fontSize=17;fontStyle=0" vertex="1" parent="1">
          <mxGeometry x="410" y="200" width="80" height="40" as="geometry" />
        </mxCell>
        <mxCell id="FEhyEeiQEZbtlAwbVF4x-9" value="公司名称" style="ellipse;whiteSpace=wrap;html=1;fontSize=17;fontStyle=0" vertex="1" parent="1">
          <mxGeometry x="430" y="240" width="80" height="40" as="geometry" />
        </mxCell>
        <mxCell id="FEhyEeiQEZbtlAwbVF4x-10" value="薪资" style="ellipse;whiteSpace=wrap;html=1;fontSize=17;fontStyle=0" vertex="1" parent="1">
          <mxGeometry x="410" y="280" width="80" height="40" as="geometry" />
        </mxCell>
        <mxCell id="FEhyEeiQEZbtlAwbVF4x-11" value="职位描述" style="ellipse;whiteSpace=wrap;html=1;fontSize=17;fontStyle=0" vertex="1" parent="1">
          <mxGeometry x="371" y="318" width="80" height="40" as="geometry" />
        </mxCell>
      </root>
    </mxGraphModel>
  </diagram>
</mxfile>
